<svg aria-hidden="true" style="position: absolute; width: 0; height: 0; overflow: hidden;" version="1.1" xmlns="http://www.w3.org/2000/svg" xmlns:xlink="http://www.w3.org/1999/xlink">
    <defs>
        <symbol id="Vector-1" viewBox="0 0 26 32">
            <path fill="none" stroke="#d41443" style="stroke: var(--color1, #d41443)" stroke-linejoin="round" stroke-linecap="round" stroke-miterlimit="4" stroke-width="6.4" d="M5.172 3.2l14.169 12.8-14.169 12.8"></path>
        </symbol>
        <symbol id="icon-github" viewBox="0 0 32 32">
            <path fill="#fff" style="fill: var(--color1, #fff)" d="M16 0c-8.837 0-16 7.163-16 16v0c0 7.52 5.28 14.4 12.32 16v-5.28h-2.080c-0.96-0.32-1.6-0.96-2.24-1.92-0.48-0.64-1.12-1.28-1.6-1.28l-0.32-1.76c1.6-0.16 2.72 0.8 3.52 2.080 0.32 0.48 0.64 0.8 1.12 0.96h1.6c0-1.28 0.64-1.6 1.12-2.4-4.16-0.48-5.92-2.72-6.4-4.48-0.96-2.4-0.48-5.28 0.96-7.040 0 0 0.16-0.16 0-0.16-0.64-2.24 0.32-4 0.32-4.16 0.8 0.16 0.96-0.32 3.52 1.28l0.48 0.32h0.32l3.36-0.48 3.36 0.48h0.32c3.2-1.92 3.2-1.28 4-1.6 0 0.16 0.96 1.92 0.16 4.16 0 0.16 2.88 2.88 1.28 7.2-0.64 1.6-2.4 4-6.4 4.48 0.32 0.8 0.96 1.28 0.96 3.040v6.56c7.040-1.6 12.32-8.48 12.32-16 0-8.837-7.163-16-16-16v0z"></path>
        </symbol>
        <symbol id="icon-telegram" viewBox="0 0 32 32">
            <path fill="#fff" style="fill: var(--color1, #fff)" d="M12.655 19.636l-0.582 6.545c0.727 0 1.018-0.291 1.455-0.727l3.2-2.909 6.836 4.655c1.309 0.727 2.182 0.291 2.473-1.018l4.509-19.636c0.436-1.745-0.727-2.182-1.891-1.891l-26.182 9.309c-2.036 0.727-2.036 1.6-0.582 2.036l6.836 1.891 15.709-9.018c0.727-0.436 1.455-0.291 0.873 0.145l-12.655 10.618z"></path>
        </symbol>
        <symbol id="icon-facebook" viewBox="0 0 32 32">
            <path fill="#fff" style="fill: var(--color1, #fff)" d="M22.109 16h-3.927v14.836h-6.255v-14.836h-2.909v-5.236h2.909v-3.491c0-2.327 1.164-6.109 6.255-6.109h4.364v5.091h-3.2c-0.436 0-1.164 0.291-1.164 1.455v2.909h4.364l-0.291 5.382z"></path>
        </symbol>
        <symbol id="icon-home" viewBox="0 0 32 32">
            <path fill="#d31342" style="fill: var(--color2, #d31342)" d="M31.508 15.754c0.738-0.738 0.492-1.723 0-2.215l-13.538-11.815c-0.313-0.319-0.749-0.517-1.231-0.517s-0.918 0.198-1.23 0.517l-0 0-13.538 12.308c-0.492 0.738-0.738 1.723 0 2.462h0.246c0.492 0.738 1.477 0.738 1.969 0.246l1.231-0.985v13.538c0 0.738 0.492 1.477 1.477 1.477h5.169c0.985 0 1.477-0.738 1.477-1.477v-9.354h6.892v9.354c0 0.738 0.492 1.477 1.477 1.477h5.662c0.738 0 1.477-0.738 1.477-1.477v-13.292l0.492 0.738c0.492 0 1.231 0 1.723-0.738l0.246-0.246z"></path>
        </symbol>
        <symbol id="icon-burger" viewBox="0 0 46 32">
            <path fill="none" stroke="#d41443" style="stroke:var(--color1, #d41443)" stroke-width="2.286" d="M0 2.286h45.714M0 16h45.714M0 29.714h45.714"/>
        </symbol>
        <symbol id="icon-close" viewBox="0 0 32 32">
            <path d="M32 3.223l-3.223-3.223-12.777 12.777-12.777-12.777-3.223 3.223 12.777 12.777-12.777 12.777 3.223 3.223 12.777-12.777 12.777 12.777 3.223-3.223-12.777-12.777 12.777-12.777z"></path>
        </symbol>
        <symbol id="icon-arrow_right" viewBox="0 0 32 32">
            <path d="M19.414 27.414l10-10c0.781-0.781 0.781-2.047 0-2.828l-10-10c-0.781-0.781-2.047-0.781-2.828 0s-0.781 2.047 0 2.828l6.586 6.586h-19.172c-1.105 0-2 0.895-2 2s0.895 2 2 2h19.172l-6.586 6.586c-0.39 0.39-0.586 0.902-0.586 1.414s0.195 1.024 0.586 1.414c0.781 0.781 2.047 0.781 2.828 0z"></path>
        </symbol>
        <symbol id="icon-arrow_top" viewBox="0 0 32 32">
            <path d="M1.95 12C1.95 6.45 6.45 1.95 12 1.95c5.55 0 10.05 4.5 10.05 10.05 0 5.55-4.5 10.05-10.05 10.05-5.55 0-10.05-4.5-10.05-10.05Zm2.1 0a7.95 7.95 0 1 0 15.9 0 7.95 7.95 0 0 0-15.9 0Zm7.95-.55-2.308 2.242a1.05 1.05 0 0 1-1.484-1.484l3-3a1.05 1.05 0 0 1 1.484 0l3 3a1.05 1.05 0 1 1-1.484 1.484L12 11.45Z"></path>
        </symbol>
        <symbol id="icon-bracket" viewBox="0 0 32 32">
            <path d="M6.139 28.005l12.267-12.005-12.267-12.267 3.733-3.733 16 16-16 16z"></path>
        </symbol>
        <symbol id="icon-logo" viewBox="0 0 34 32">
            <path d="M14.925 3.112c-2.262 0.632-4.185 1.855-5.657 3.493l-0.010 0.011c-1.115 1.182-1.919 2.667-2.277 4.319l-0.011 0.060-0.375 2.020-0.197 0.929-0.626 0.84c-0.733 0.947-0.983 1.823-0.822 2.735 0.125 0.786 0.34 1.198 0.965 1.913 0.268 0.322 0.59 0.876 0.697 1.251s0.268 1.609 0.34 2.771l0.143 2.073 0.357 0.697 0.357 0.679 1.233 1.037c0.679 0.572 1.394 1.287 1.573 1.591l0.34 0.536-0.393 0.643 1.376 0.358c0.751 0.215 1.698 0.429 2.091 0.483l1.251 0.197 0.536 0.072-0.894-0.358c-1.001-0.393-1.519-0.912-1.519-1.537v-0.411l0.411-0.232 0.393-0.215 2.771-0.018h2.771l1.323 0.465 0.107 0.34c0.161 0.483-0.161 0.965-0.84 1.323l-0.59 0.304 0.679-0.107c0.947-0.161 3.039-0.876 3.003-1.037-0.072-0.393 0.661-1.287 1.859-2.27l1.341-1.108 0.393-0.733 0.375-0.751 0.143-2.056c0.072-1.126 0.232-2.324 0.322-2.663 0.107-0.34 0.429-0.912 0.697-1.251 0.661-0.84 0.858-1.215 0.983-1.984 0.161-0.912-0.107-1.877-0.751-2.592l-0.536-0.626-0.25-0.947c-0.143-0.501-0.34-1.484-0.447-2.163l-0.197-1.233-0.536-1.090c-1.348-2.425-3.448-4.293-5.98-5.316l-0.080-0.029-1.376-0.536-1.787-0.054-1.787-0.071-0.894 0.25zM19.626 5.257c1.263 0.433 2.356 0.971 3.365 1.626l-0.059-0.036c0.393 0.322 0.393 0.715-0.018 1.072-1.114 0.691-2.417 1.203-3.811 1.456l-0.068 0.010-1.43 0.286-0.983-0.107c-2.145-0.25-4.594-1.108-5.255-1.841l-0.322-0.375 0.501-0.465c1.148-0.844 2.498-1.492 3.96-1.86l0.080-0.017 1.305-0.357 0.769 0.107c0.411 0.054 1.305 0.286 1.966 0.5zM11.761 10.512c0.661 0.286 1.644 0.626 2.181 0.769l0.983 0.25h4.647l0.983-0.25c0.536-0.143 1.519-0.483 2.181-0.769 0.661-0.268 1.394-0.501 1.644-0.501h0.447l0.268 0.393 0.286 0.393v2.252l-0.483 0.304-0.483 0.322h-14.335l-0.483-0.322-0.483-0.304v-1.072c0-0.572 0.072-1.251 0.179-1.501l0.179-0.465h0.536c0.304 0 1.090 0.232 1.752 0.501zM23.237 16.268c2.663 0.25 3.432 0.393 3.521 0.661 0.107 0.286-0.876 0.572-2.985 0.876l-1.877 0.25-0.572 0.679-0.107 1.627c-0.054 0.876-0.197 1.77-0.304 1.966-0.232 0.465-0.626 0.483-0.822 0.054-0.072-0.161-0.179-1.233-0.232-2.359l-0.107-2.056-11.082-0.215-0.679-0.215c-0.375-0.125-0.733-0.34-0.786-0.5-0.161-0.429 0.197-0.84 0.858-0.983 0.894-0.179 12.584-0.018 15.176 0.215zM16.462 20.54c0.197 0.232 0.393 0.733 0.447 1.126 0.072 0.393 0.232 0.804 0.358 0.947 0.143 0.125 0.25 0.322 0.25 0.393 0 0.215 1.055 1.215 1.555 1.466 0.572 0.286 1.966 0.232 2.663-0.089 0.34-0.161 0.786-0.518 0.983-0.804l0.375-0.518 0.322-2.395 0.304-0.322 0.304-0.34 0.447 0.054 0.465 0.054 0.215 0.447 0.232 0.447v3.057l-0.411 0.786c-0.236 0.471-0.562 0.866-0.958 1.174l-0.008 0.006c-0.516 0.284-1.116 0.502-1.75 0.62l-0.037 0.006-1.215 0.25h-7.507l-1.215-0.25c-0.661-0.125-1.466-0.411-1.787-0.626-0.403-0.314-0.729-0.708-0.956-1.16l-0.009-0.020-0.411-0.786v-4.058l7.007 0.107 0.34 0.429z"></path>
        </symbol>
        <symbol id="icon-name" viewBox="0 0 32 32">
            <path d="M16.015 16.015c4.422 0 8.008-3.585 8.008-8.008s-3.585-8.008-8.008-8.008v0c-4.422 0-8.008 3.585-8.008 8.008s3.585 8.008 8.008 8.008v0zM16.015 20.019c-5.344 0-16.015 2.683-16.015 8.008v2.002c0 1.1 0.902 2.002 2.002 2.002h28.027c1.1 0 2.002-0.902 2.002-2.002v-2.002c0-5.325-10.671-8.008-16.015-8.008z"></path>
        </symbol>
        <symbol id="icon-tel" viewBox="0 0 32 32">
            <path d="M27.436 20.865l-4.204-0.48c-0.116-0.014-0.25-0.023-0.386-0.023-0.91 0-1.733 0.369-2.329 0.965l-3.046 3.046c-4.72-2.436-8.472-6.188-10.842-10.771l-0.065-0.139 3.065-3.058c0.596-0.596 0.965-1.419 0.965-2.329 0-0.136-0.008-0.27-0.024-0.402l0.002 0.016-0.48-4.172c-0.199-1.656-1.596-2.928-3.289-2.928-0.001 0-0.003 0-0.004 0h-2.863c-1.871-0.002-3.426 1.553-3.312 3.424 0.878 14.134 12.183 25.421 26.302 26.299 1.869 0.114 3.426-1.441 3.426-3.312v-2.863c0-0.005 0-0.010 0-0.016 0-1.682-1.267-3.069-2.899-3.258l-0.015-0.001z"></path>
        </symbol>
        <symbol id="icon-email" viewBox="0 0 43 32">
            <path d="M37.333 0h-32c-2.2 0-3.98 1.8-3.98 4l-0.020 24c0 2.2 1.8 4 4 4h32c2.2 0 4-1.8 4-4v-24c0-2.2-1.8-4-4-4zM36.533 8.5l-14.14 8.84c-0.64 0.4-1.48 0.4-2.12 0l-14.14-8.84c-0.5-0.32-0.8-0.86-0.8-1.44 0-1.34 1.46-2.14 2.6-1.44l13.4 8.38 13.4-8.38c1.14-0.7 2.6 0.1 2.6 1.44 0 0.58-0.3 1.12-0.8 1.44z"></path>
        </symbol>
        <symbol id="icon-context" viewBox="0 0 42 32">
            <path fill="#fff" style="fill: var(--color1, #fff); stroke: var(--color1, #fff)" stroke="#fff" stroke-linejoin="miter" stroke-linecap="butt" stroke-miterlimit="4" stroke-width="0.64" d="M6.263 15.205l-0.22-0.21-3.307 3.132 11.651 11.114 24.477-23.351-3.285-3.134-21.192 20.197-8.124-7.75z"></path>
        </symbol>
        <symbol id="icon-icon-close" viewBox="0 0 32 32">
            <path d="M32.017 3.225l-3.225-3.225-12.783 12.783-12.783-12.783-3.225 3.225 12.783 12.783-12.783 12.783 3.225 3.225 12.783-12.783 12.783 12.783 3.225-3.225-12.783-12.783 12.783-12.783z"></path>
        </symbol>
        <symbol id="icon-person" viewBox="0 0 32 32">
            <path d="M16 16c4.42 0 8-3.58 8-8s-3.58-8-8-8c-4.42 0-8 3.58-8 8s3.58 8 8 8zM16 20c-5.34 0-16 2.68-16 8v2c0 1.1 0.9 2 2 2h28c1.1 0 2-0.9 2-2v-2c0-5.32-10.66-8-16-8z"></path>
        </symbol>
        <symbol id="icon-phone" viewBox="0 0 32 32">
            <path d="M27.419 20.852l-4.201-0.48c-1.009-0.116-2.002 0.232-2.713 0.943l-3.044 3.044c-4.681-2.382-8.519-6.203-10.901-10.901l3.060-3.060c0.711-0.711 1.059-1.704 0.943-2.713l-0.48-4.168c-0.198-1.671-1.604-2.928-3.292-2.928h-2.862c-1.869 0-3.424 1.555-3.308 3.424 0.877 14.126 12.174 25.407 26.284 26.284 1.869 0.116 3.424-1.439 3.424-3.308v-2.861c0.016-1.671-1.241-3.077-2.911-3.275z"></path>
        </symbol>
        <symbol id="icon-agreement" viewBox="0 0 34 32">
            <path d="M30.341 3.556v24.889h-26.548v-24.889h26.548zM30.341 0h-26.548c-2.086 0-3.793 1.6-3.793 3.556v24.889c0 1.956 1.707 3.556 3.793 3.556h26.548c2.086 0 3.793-1.6 3.793-3.556v-24.889c0-1.956-1.707-3.556-3.793-3.556z"></path>
        </symbol>
        <symbol id="icon-check" viewBox="0 0 16 15">
            <path d="M3.95703 7.75166L3.88825 7.68604L3.81923 7.75141L2.93123 8.59258L2.85486 8.66492L2.93097 8.73753L6.42671 12.0724L6.49574 12.1382L6.56476 12.0724L14.069 4.91352L14.1449 4.84116L14.069 4.76881L13.1873 3.92764L13.1183 3.86183L13.0493 3.92761L6.49577 10.1735L3.95703 7.75166Z" stroke-width="0.2"/>
        </symbol>
    </defs>
</svg>